<svg xmlns="http://www.w3.org/2000/svg" viewBox="0 0 330 330" width="512" height="512">
  <g fill="#8e8e8e">
    <path
      d="M51.213 165.004L190.607 25.607c5.857-5.858 5.857-15.355 0-21.213-5.858-5.858-15.356-5.858-21.214 0l-150 150.005C16.58 157.21 15 161.025 15 165.003c0 3.98 1.58 7.794 4.394 10.607l150 149.997C172.322 328.537 176.16 330 180 330s7.678-1.464 10.607-4.394c5.857-5.858 5.857-15.355 0-21.213L51.212 165.003z"/>
    <path
      d="M171.213 165.004L310.607 25.607c5.858-5.858 5.858-15.355 0-21.213-5.857-5.858-15.355-5.858-21.213 0l-150 150.005c-2.813 2.812-4.393 6.627-4.393 10.605 0 3.98 1.582 7.794 4.395 10.607l150 149.996C292.322 328.536 296.16 330 300 330c3.84 0 7.678-1.464 10.607-4.394 5.858-5.858 5.858-15.355 0-21.213l-139.394-139.39z"/>
  </g>
</svg>
